<svg width="40" height="40" viewBox="0 0 40 40" fill="none" xmlns="http://www.w3.org/2000/svg">
<g clip-path="url(#clip0_212_1601)">
<path d="M22.5625 19.713C22.5625 25.9975 17.5117 31.0921 11.2815 31.0921C5.05134 31.0921 0.00012207 25.9964 0.00012207 19.713C0.00012207 13.4296 5.05095 8.3335 11.2815 8.3335C17.5121 8.3335 22.5625 13.4285 22.5625 19.713Z" fill="url(#paint0_linear_212_1601)"/>
<path d="M34.9385 19.7129C34.9385 25.6284 32.4131 30.4258 29.2978 30.4258C26.1825 30.4258 23.6571 25.6284 23.6571 19.7129C23.6571 13.7974 26.1821 9 29.2974 9C32.4127 9 34.9381 13.7959 34.9381 19.7129" fill="url(#paint1_linear_212_1601)"/>
<path d="M40.0006 19.7128C40.0006 25.0117 39.1126 29.3099 38.0168 29.3099C36.921 29.3099 36.0333 25.0128 36.0333 19.7128C36.0333 14.4128 36.9214 10.1157 38.0168 10.1157C39.1122 10.1157 40.0006 14.4124 40.0006 19.7128Z" fill="url(#paint2_linear_212_1601)"/>
</g>
<defs>
<linearGradient id="paint0_linear_212_1601" x1="9.91265" y1="31.0921" x2="27.7728" y2="21.324" gradientUnits="userSpaceOnUse">
<stop stop-color="#7942F7"/>
<stop offset="0.775215" stop-color="#FFE5FA"/>
<stop offset="1" stop-color="white"/>
</linearGradient>
<linearGradient id="paint1_linear_212_1601" x1="28.6135" y1="30.4258" x2="39.3122" y2="27.3181" gradientUnits="userSpaceOnUse">
<stop stop-color="#7942F7"/>
<stop offset="0.775215" stop-color="#FFE5FA"/>
<stop offset="1" stop-color="white"/>
</linearGradient>
<linearGradient id="paint2_linear_212_1601" x1="37.7763" y1="29.3099" x2="41.8038" y2="28.8506" gradientUnits="userSpaceOnUse">
<stop stop-color="#7942F7"/>
<stop offset="0.775215" stop-color="#FFE5FA"/>
<stop offset="1" stop-color="white"/>
</linearGradient>
<clipPath id="clip0_212_1601">
<rect width="40" height="40" fill="white"/>
</clipPath>
</defs>
</svg>
