<svg width="40" height="40" viewBox="0 0 40 40" fill="none" xmlns="http://www.w3.org/2000/svg">
<g clip-path="url(#clip0_212_1513)">
<path d="M33.8617 6.92628C31.3122 5.75648 28.5783 4.89462 25.7198 4.401C25.6678 4.39147 25.6158 4.41528 25.589 4.46289C25.2374 5.08825 24.8479 5.90408 24.5752 6.54532C21.5007 6.08504 18.442 6.08504 15.4305 6.54532C15.1577 5.88983 14.7541 5.08825 14.401 4.46289C14.3741 4.41687 14.3221 4.39306 14.2701 4.401C11.4132 4.89304 8.67927 5.7549 6.12823 6.92628C6.10614 6.9358 6.08721 6.95169 6.07465 6.97231C0.888986 14.7196 -0.531584 22.2764 0.1653 29.7396C0.168453 29.7761 0.18895 29.811 0.21733 29.8332C3.63868 32.3458 6.95285 33.8711 10.2055 34.8822C10.2575 34.8981 10.3127 34.879 10.3458 34.8361C11.1152 33.7854 11.8011 32.6776 12.3891 31.5125C12.4238 31.4443 12.3907 31.3633 12.3198 31.3363C11.2319 30.9236 10.196 30.4205 9.19955 29.8491C9.12073 29.8031 9.11442 29.6903 9.18693 29.6364C9.39662 29.4792 9.60637 29.3158 9.80659 29.1507C9.84282 29.1205 9.8933 29.1142 9.93589 29.1332C16.4821 32.122 23.5692 32.122 30.0383 29.1332C30.0809 29.1126 30.1313 29.119 30.1691 29.1491C30.3694 29.3142 30.5791 29.4792 30.7904 29.6364C30.8629 29.6903 30.8581 29.8031 30.7793 29.8491C29.7829 30.4316 28.747 30.9236 27.6575 31.3347C27.5866 31.3617 27.555 31.4443 27.5898 31.5125C28.1904 32.6759 28.8763 33.7838 29.6315 34.8346C29.663 34.879 29.7198 34.8981 29.7718 34.8822C33.0402 33.8711 36.3544 32.3458 39.7757 29.8332C39.8057 29.811 39.8246 29.7777 39.8278 29.7412C40.6618 21.1129 38.4308 13.6181 33.9137 6.97389C33.9027 6.95169 33.8838 6.9358 33.8617 6.92628ZM13.3667 25.1953C11.3958 25.1953 9.77189 23.3859 9.77189 21.1637C9.77189 18.9416 11.3643 17.1322 13.3667 17.1322C15.3848 17.1322 16.993 18.9575 16.9615 21.1637C16.9615 23.3859 15.369 25.1953 13.3667 25.1953ZM26.6579 25.1953C24.6871 25.1953 23.0632 23.3859 23.0632 21.1637C23.0632 18.9416 24.6556 17.1322 26.6579 17.1322C28.6761 17.1322 30.2842 18.9575 30.2527 21.1637C30.2527 23.3859 28.6761 25.1953 26.6579 25.1953Z" fill="url(#paint0_linear_212_1513)"/>
</g>
<defs>
<linearGradient id="paint0_linear_212_1513" x1="17.5735" y1="34.8877" x2="44.5675" y2="15.3501" gradientUnits="userSpaceOnUse">
<stop stop-color="#7942F7"/>
<stop offset="0.775215" stop-color="#FFE5FA"/>
<stop offset="1" stop-color="white"/>
</linearGradient>
<clipPath id="clip0_212_1513">
<rect width="40" height="40" fill="white"/>
</clipPath>
</defs>
</svg>
