<svg width="40" height="40" viewBox="0 0 40 40" fill="none" xmlns="http://www.w3.org/2000/svg">
<g clip-path="url(#clip0_212_1635)">
<path fill-rule="evenodd" clip-rule="evenodd" d="M40 20C40 31.0457 31.0457 40 20 40C8.95431 40 0 31.0457 0 20C0 8.95431 8.95431 0 20 0C31.0457 0 40 8.95431 40 20ZM20.7166 14.765C18.7713 15.5741 14.8834 17.2487 9.05303 19.789C8.10626 20.1655 7.61031 20.5338 7.56516 20.8939C7.48885 21.5026 8.25106 21.7423 9.289 22.0686C9.43018 22.113 9.57647 22.159 9.72644 22.2078C10.7476 22.5397 12.1213 22.928 12.8354 22.9435C13.4831 22.9575 14.2061 22.6904 15.0043 22.1423C20.4518 18.4651 23.2638 16.6064 23.4404 16.5664C23.5649 16.5381 23.7375 16.5026 23.8545 16.6065C23.9714 16.7104 23.9599 16.9073 23.9475 16.9601C23.872 17.282 20.8801 20.0636 19.3318 21.503C18.8491 21.9518 18.5067 22.2701 18.4367 22.3428C18.2799 22.5057 18.1201 22.6597 17.9665 22.8078C17.0178 23.7223 16.3064 24.4081 18.0059 25.5281C18.8226 26.0663 19.4761 26.5113 20.1281 26.9553C20.8402 27.4402 21.5503 27.9239 22.4692 28.5262C22.7033 28.6797 22.9269 28.839 23.1447 28.9943C23.9733 29.585 24.7178 30.1158 25.6375 30.0311C26.1719 29.982 26.724 29.4794 27.0043 27.9807C27.6669 24.4387 28.9693 16.7642 29.2702 13.6017C29.2966 13.3246 29.2634 12.97 29.2368 12.8144C29.2102 12.6587 29.1545 12.4369 28.9522 12.2727C28.7125 12.0783 28.3426 12.0373 28.1772 12.0402C27.4249 12.0535 26.2708 12.4548 20.7166 14.765Z" fill="url(#paint0_linear_212_1635)"/>
</g>
<defs>
<linearGradient id="paint0_linear_212_1635" x1="17.5735" y1="40" x2="49.1102" y2="22.6019" gradientUnits="userSpaceOnUse">
<stop stop-color="#7942F7"/>
<stop offset="0.775215" stop-color="#FFE5FA"/>
<stop offset="1" stop-color="white"/>
</linearGradient>
<clipPath id="clip0_212_1635">
<rect width="40" height="40" fill="white"/>
</clipPath>
</defs>
</svg>
