<svg width="36" height="32" viewBox="0 0 36 32" fill="none" xmlns="http://www.w3.org/2000/svg">
<path fill-rule="evenodd" clip-rule="evenodd" d="M0 0.876397V27.6692C0 28.1532 0.392378 28.5456 0.8764 28.5456H10.642C11.126 28.5456 11.5184 28.9379 11.5184 29.422V30.9369C11.5184 31.7177 12.4624 32.1088 13.0145 31.5567L15.7689 28.8023C15.9332 28.6379 16.1562 28.5456 16.3886 28.5456H27.6818C27.9142 28.5456 28.1371 28.4532 28.3015 28.2889L34.7993 21.7911C34.9636 21.6267 35.056 21.4038 35.056 21.1714V0.876399C35.056 0.392377 34.6636 0 34.1796 0H0.876399C0.392377 0 0 0.392376 0 0.876397ZM23.0368 11.0172H27.0432V21.0332H23.0368V11.0172ZM17.0272 11.0172H13.0208V21.0332H17.0272V11.0172Z" fill="url(#paint0_linear_212_1839)"/>
<defs>
<linearGradient id="paint0_linear_212_1839" x1="15.4014" y1="31.8151" x2="41.725" y2="15.8136" gradientUnits="userSpaceOnUse">
<stop stop-color="#7942F7"/>
<stop offset="0.775215" stop-color="#FFE5FA"/>
<stop offset="1" stop-color="white"/>
</linearGradient>
</defs>
</svg>
