<svg width="40" height="40" viewBox="0 0 40 40" fill="none" xmlns="http://www.w3.org/2000/svg">
<path d="M12.5836 36.2497C27.6742 36.2497 35.9305 23.7443 35.9305 12.9029C35.9305 12.5513 35.9227 12.1919 35.907 11.8404C37.5131 10.6789 38.8992 9.24018 40 7.59192C38.5042 8.25742 36.9161 8.69206 35.2898 8.88098C37.0021 7.8546 38.2842 6.24221 38.8984 4.3427C37.2876 5.29735 35.526 5.97078 33.6891 6.33411C32.4514 5.01902 30.815 4.14828 29.0328 3.85651C27.2506 3.56473 25.422 3.86817 23.8296 4.71992C22.2372 5.57166 20.9697 6.92426 20.2231 8.56861C19.4765 10.213 19.2924 12.0574 19.6992 13.8169C16.4375 13.6532 13.2466 12.8059 10.3333 11.3299C7.42004 9.85391 4.84949 7.78215 2.78828 5.24895C1.74067 7.05516 1.42009 9.1925 1.89172 11.2266C2.36334 13.2606 3.59177 15.0388 5.32734 16.1997C4.02438 16.1584 2.74996 15.8076 1.60938 15.1763V15.2779C1.60821 17.1733 2.2635 19.0107 3.46385 20.4777C4.6642 21.9447 6.33554 22.9507 8.19375 23.3247C6.98676 23.655 5.71997 23.7031 4.49141 23.4654C5.01576 25.0955 6.03595 26.5212 7.40962 27.5436C8.78328 28.566 10.4419 29.1341 12.1539 29.1685C9.24737 31.4516 5.65696 32.69 1.96094 32.6841C1.30548 32.6831 0.650665 32.6429 0 32.5638C3.75476 34.9727 8.12255 36.2521 12.5836 36.2497Z" fill="url(#paint0_linear_213_2320)"/>
<defs>
<linearGradient id="paint0_linear_213_2320" x1="17.5735" y1="36.2497" x2="45.7289" y2="17.1332" gradientUnits="userSpaceOnUse">
<stop stop-color="#7942F7"/>
<stop offset="0.775215" stop-color="#FFE5FA"/>
<stop offset="1" stop-color="white"/>
</linearGradient>
</defs>
</svg>
