<svg width="33" height="34" viewBox="0 0 33 34" fill="none" xmlns="http://www.w3.org/2000/svg">
<path fill-rule="evenodd" clip-rule="evenodd" d="M0 1.00193C0 0.448581 0.448582 0 1.00194 0H31.5247C32.078 0 32.5266 0.448582 32.5266 1.00194V3.06389C32.5266 3.61724 32.078 4.06582 31.5247 4.06582H1.00193C0.448581 4.06582 0 3.61724 0 3.06389V1.00193ZM0 8.55259C0 7.99923 0.448582 7.55065 1.00194 7.55065H31.5247C32.078 7.55065 32.5266 7.99923 32.5266 8.55259V10.6145C32.5266 11.1679 32.078 11.6165 31.5247 11.6165H1.00193C0.448581 11.6165 0 11.1679 0 10.6145V8.55259ZM1.00194 15.1017H31.5247C32.078 15.1017 32.5266 15.5503 32.5266 16.1037V32.9778C32.5266 33.7781 31.6347 34.2554 30.9689 33.8115L16.9606 24.4719C16.6266 24.2492 16.1918 24.2474 15.856 24.4673L1.55081 33.8345C0.884461 34.2709 0 33.7928 0 32.9963V16.1037C0 15.5503 0.448582 15.1017 1.00194 15.1017Z" fill="url(#paint0_linear_212_1654)"/>
<defs>
<linearGradient id="paint0_linear_212_1654" x1="14.2902" y1="34" x2="40.4523" y2="20.1924" gradientUnits="userSpaceOnUse">
<stop stop-color="#7942F7"/>
<stop offset="0.775215" stop-color="#FFE5FA"/>
<stop offset="1" stop-color="white"/>
</linearGradient>
</defs>
</svg>
