<svg width="33" height="34" viewBox="0 0 33 34" fill="none" xmlns="http://www.w3.org/2000/svg">
<g clip-path="url(#clip0_106_538)">
<path d="M28.0439 6.46339C25.9855 5.51891 23.7782 4.82306 21.4703 4.42452C21.4283 4.41683 21.3863 4.43605 21.3646 4.4745C21.0808 4.9794 20.7663 5.63809 20.5461 6.15581C18.0638 5.78419 15.5943 5.78419 13.1629 6.15581C12.9427 5.62658 12.6168 4.9794 12.3317 4.4745C12.31 4.43734 12.268 4.41811 12.226 4.42452C9.91938 4.82179 7.71207 5.51764 5.6524 6.46339C5.63457 6.47108 5.61929 6.48391 5.60915 6.50055C1.42234 12.7556 0.275399 18.8568 0.83805 24.8824C0.840596 24.9119 0.857144 24.9401 0.880058 24.958C3.64239 26.9866 6.31819 28.2182 8.94429 29.0345C8.98632 29.0473 9.03085 29.0319 9.0576 28.9973C9.6788 28.149 10.2326 27.2545 10.7073 26.3138C10.7354 26.2587 10.7086 26.1934 10.6513 26.1716C9.773 25.8384 8.93665 25.4322 8.13213 24.9708C8.0685 24.9337 8.0634 24.8427 8.12194 24.7991C8.29124 24.6722 8.46059 24.5402 8.62225 24.407C8.6515 24.3826 8.69225 24.3775 8.72664 24.3929C14.012 26.8059 19.734 26.8059 24.9569 24.3929C24.9913 24.3762 25.0321 24.3813 25.0626 24.4057C25.2243 24.539 25.3936 24.6722 25.5642 24.7991C25.6227 24.8427 25.6189 24.9337 25.5552 24.9708C24.7507 25.4411 23.9144 25.8384 23.0348 26.1703C22.9775 26.1921 22.952 26.2587 22.98 26.3138C23.465 27.2532 24.0188 28.1477 24.6285 28.996C24.654 29.0319 24.6998 29.0473 24.7418 29.0345C27.3806 28.2182 30.0564 26.9866 32.8188 24.958C32.843 24.9401 32.8582 24.9132 32.8608 24.8837C33.5342 17.9174 31.7329 11.8662 28.0859 6.50183C28.077 6.48391 28.0617 6.47108 28.0439 6.46339ZM11.4966 21.2134C9.90537 21.2134 8.59423 19.7526 8.59423 17.9585C8.59423 16.1643 9.87994 14.7035 11.4966 14.7035C13.126 14.7035 14.4244 16.1772 14.399 17.9585C14.399 19.7526 13.1132 21.2134 11.4966 21.2134ZM22.2277 21.2134C20.6365 21.2134 19.3253 19.7526 19.3253 17.9585C19.3253 16.1643 20.611 14.7035 22.2277 14.7035C23.8571 14.7035 25.1555 16.1772 25.1301 17.9585C25.1301 19.7526 23.8571 21.2134 22.2277 21.2134Z" fill="white"/>
</g>
<defs>
<clipPath id="clip0_106_538">
<rect width="32.2952" height="32.2952" fill="white" transform="translate(0.70459 0.87207)"/>
</clipPath>
</defs>
</svg>
