<svg width="33" height="33" viewBox="0 0 33 33" fill="none" xmlns="http://www.w3.org/2000/svg">
<g clip-path="url(#clip0_106_534)">
<path d="M32.2952 16.1476C32.2952 7.22953 25.0657 0 16.1476 0C7.22953 0 0 7.22953 0 16.1476C0 24.2072 5.90492 30.8877 13.6246 32.0991V20.8153H9.52458V16.1476H13.6246V12.5901C13.6246 8.5431 16.0353 6.30767 19.7238 6.30767C21.4899 6.30767 23.3384 6.62305 23.3384 6.62305V10.5969H21.3022C19.2964 10.5969 18.6707 11.8417 18.6707 13.1199V16.1476H23.1491L22.4332 20.8153H18.6707V32.0991C26.3903 30.8877 32.2952 24.2072 32.2952 16.1476Z" fill="white"/>
</g>
<defs>
<clipPath id="clip0_106_534">
<rect width="32.2952" height="32.2952" fill="white"/>
</clipPath>
</defs>
</svg>
