<svg width="44" height="44" viewBox="0 0 44 44" fill="none" xmlns="http://www.w3.org/2000/svg">
<path d="M4.8779 29.3326H9.75579C12.4386 29.3326 14.6337 27.1375 14.6337 24.4547V19.5768C14.6337 16.8939 12.4386 14.6989 9.75579 14.6989H4.8779C2.19505 14.6989 0 16.8939 0 19.5768V24.4547C0 27.1375 2.19505 29.3326 4.8779 29.3326Z" fill="#00FFFF"/>
<path d="M19.5263 14.7076H24.4042C27.0871 14.7076 29.2821 12.5125 29.2821 9.82968V4.95178C29.2821 2.26894 27.0871 0.0738831 24.4042 0.0738831H19.5263C16.8435 0.0738831 14.6484 2.26894 14.6484 4.95178V9.82968C14.6484 12.5125 16.8435 14.7076 19.5263 14.7076Z" fill="#00FF47"/>
<path d="M39.0292 29.3384H34.1513C31.4685 29.3384 29.2734 27.1433 29.2734 24.4605V19.5826C29.2734 16.8997 31.4685 14.7047 34.1513 14.7047H39.0292C41.7121 14.7047 43.9071 16.8997 43.9071 19.5826V24.4605C43.9071 27.1433 41.7121 29.3384 39.0292 29.3384Z" fill="#FA00FF"/>
<path d="M24.3896 29.3326H19.5117C16.8288 29.3326 14.6338 31.5277 14.6338 34.2105V39.0884C14.6338 41.7713 16.8288 43.9663 19.5117 43.9663H24.3896C27.0724 43.9663 29.2675 41.7713 29.2675 39.0884V34.2105C29.2675 31.5277 27.0724 29.3326 24.3896 29.3326Z" fill="#1447FD"/>
<path d="M14.648 22.0558C14.648 26.0564 17.9213 29.3297 21.922 29.3297C19.2815 31.9702 17.583 33.6687 14.648 36.6037C14.648 32.603 11.3747 29.3297 7.37402 29.3297C11.1434 25.5604 11.4116 25.2922 14.648 22.0558Z" fill="url(#paint0_linear_56_41)"/>
<path d="M7.29453 14.7018C11.3392 14.7018 14.6484 11.3926 14.6484 7.34792C17.3179 10.0174 19.0351 11.7346 22.0023 14.7018C17.9577 14.7018 14.6484 18.0111 14.6484 22.0557C10.8377 18.245 10.5665 17.9738 7.29453 14.7018Z" fill="url(#paint1_linear_56_41)"/>
<path d="M21.9225 29.3297C25.9671 29.3297 29.2764 26.0204 29.2764 21.9758C31.9458 24.6452 33.6631 26.3625 36.6303 29.3297C32.5856 29.3297 29.2764 32.6389 29.2764 36.6836C25.4656 32.8728 25.1944 32.6017 21.9225 29.3297Z" fill="url(#paint2_linear_56_41)"/>
<defs>
<linearGradient id="paint0_linear_56_41" x1="21.941" y1="29.3253" x2="14.6699" y2="22.0542" gradientUnits="userSpaceOnUse">
<stop stop-color="#1447FD"/>
<stop offset="1" stop-color="#00FFFF"/>
</linearGradient>
<linearGradient id="paint1_linear_56_41" x1="14.644" y1="7.32866" x2="7.293" y2="14.6797" gradientUnits="userSpaceOnUse">
<stop stop-color="#00FF47"/>
<stop offset="1" stop-color="#00FFFF"/>
</linearGradient>
<linearGradient id="paint2_linear_56_41" x1="29.2719" y1="21.9565" x2="21.9209" y2="29.3075" gradientUnits="userSpaceOnUse">
<stop stop-color="#FA00FF"/>
<stop offset="1" stop-color="#1447FD"/>
</linearGradient>
</defs>
</svg>
