<svg width="140" height="46" viewBox="0 0 140 46" fill="none" xmlns="http://www.w3.org/2000/svg">
<path d="M4.8779 30.3326H9.75579C12.4386 30.3326 14.6337 28.1376 14.6337 25.4547V20.5768C14.6337 17.894 12.4386 15.6989 9.75579 15.6989H4.8779C2.19505 15.6989 0 17.894 0 20.5768V25.4547C0 28.1376 2.19505 30.3326 4.8779 30.3326Z" fill="#00FFFF"/>
<path d="M19.5263 15.7076H24.4042C27.0871 15.7076 29.2821 13.5126 29.2821 10.8297V5.95181C29.2821 3.26897 27.0871 1.07391 24.4042 1.07391H19.5263C16.8435 1.07391 14.6484 3.26897 14.6484 5.95181V10.8297C14.6484 13.5126 16.8435 15.7076 19.5263 15.7076Z" fill="#00FF47"/>
<path d="M39.0292 30.3384H34.1513C31.4685 30.3384 29.2734 28.1433 29.2734 25.4605V20.5826C29.2734 17.8998 31.4685 15.7047 34.1513 15.7047H39.0292C41.7121 15.7047 43.9071 17.8998 43.9071 20.5826V25.4605C43.9071 28.1433 41.7121 30.3384 39.0292 30.3384Z" fill="#FA00FF"/>
<path d="M24.3896 30.3326H19.5117C16.8288 30.3326 14.6338 32.5277 14.6338 35.2105V40.0884C14.6338 42.7713 16.8288 44.9663 19.5117 44.9663H24.3896C27.0724 44.9663 29.2675 42.7713 29.2675 40.0884V35.2105C29.2675 32.5277 27.0724 30.3326 24.3896 30.3326Z" fill="#1447FD"/>
<path d="M14.648 23.0558C14.648 27.0565 17.9213 30.3298 21.922 30.3298C19.2815 32.9702 17.583 34.6688 14.648 37.6037C14.648 33.6031 11.3747 30.3298 7.37402 30.3298C11.1434 26.5604 11.4116 26.2922 14.648 23.0558Z" fill="url(#paint0_linear_72_52)"/>
<path d="M7.29453 15.7019C11.3392 15.7019 14.6484 12.3926 14.6484 8.34797C17.3179 11.0174 19.0351 12.7347 22.0023 15.7019C17.9577 15.7019 14.6484 19.0111 14.6484 23.0558C10.8377 19.245 10.5665 18.9739 7.29453 15.7019Z" fill="url(#paint1_linear_72_52)"/>
<path d="M21.9225 30.3297C25.9671 30.3297 29.2764 27.0204 29.2764 22.9758C31.9458 25.6452 33.6631 27.3625 36.6303 30.3297C32.5856 30.3297 29.2764 33.6389 29.2764 37.6836C25.4656 33.8728 25.1944 33.6017 21.9225 30.3297Z" fill="url(#paint2_linear_72_52)"/>
<path d="M68.0224 8.70552C67.9078 8.47642 67.736 8.36187 67.5069 8.36187H62.2374C61.7792 8.36187 61.5215 8.47642 61.4356 8.70552L49.7512 36.5132C49.608 36.8282 49.7226 37 50.0949 37H54.9347C55.1925 37 55.3643 36.8854 55.4502 36.6563L57.1685 32.4752H71.5448L73.1486 36.6563C73.2345 36.8854 73.4063 37 73.6641 37H78.5039C78.8762 37 78.9908 36.8282 78.8476 36.5132L68.0224 8.70552ZM59.3736 27.1485L64.6431 14.4618L69.4829 27.1485H59.3736ZM108.11 31.2724C108.397 31.2724 108.54 31.1292 108.54 30.8428V26.3466C108.54 26.0602 108.397 25.917 108.11 25.917H97.514C97.2277 25.917 97.0845 26.0602 97.0845 26.3466V30.7569C96.0821 31.301 95.1084 31.5588 94.2207 31.5588C91.8723 31.5588 89.839 30.671 88.1494 28.8954C86.4597 27.1198 85.6292 25.0579 85.6292 22.6809C85.6292 20.304 86.4597 18.242 88.1494 16.4665C89.839 14.6909 91.8723 13.8031 94.2207 13.8031C95.9962 13.8031 97.5999 14.3472 99.0032 15.4068C100.435 16.4665 101.495 17.8411 102.153 19.4735C102.268 19.7026 102.44 19.8171 102.669 19.8171H107.766C108.11 19.8171 108.225 19.6453 108.139 19.3303C107.366 16.1514 105.705 13.5167 103.098 11.4261C100.521 9.33556 97.5713 8.27595 94.2207 8.27595C91.6146 8.27595 89.2376 8.93463 87.0325 10.2233C84.8273 11.5121 83.1091 13.259 81.8203 15.4641C80.5316 17.6693 79.9016 20.0749 79.9016 22.6809C79.9016 25.287 80.5316 27.6926 81.8203 29.8977C83.1091 32.1029 84.8273 33.8784 87.0325 35.1672C89.2376 36.4559 91.6146 37.0859 94.2207 37.0859C98.8028 37.0859 102.955 34.8521 105.676 31.2724H108.11ZM128.151 8.70552C128.037 8.47642 127.865 8.36187 127.636 8.36187H122.366C121.908 8.36187 121.65 8.47642 121.564 8.70552L109.88 36.5132C109.737 36.8282 109.851 37 110.224 37H115.064C115.321 37 115.493 36.8854 115.579 36.6563L117.297 32.4752H131.674L133.277 36.6563C133.363 36.8854 133.535 37 133.793 37H138.633C139.005 37 139.12 36.8282 138.976 36.5132L128.151 8.70552ZM119.503 27.1485L124.772 14.4618L129.612 27.1485H119.503Z" fill="white"/>
<defs>
<linearGradient id="paint0_linear_72_52" x1="21.941" y1="30.3254" x2="14.6699" y2="23.0543" gradientUnits="userSpaceOnUse">
<stop stop-color="#1447FD"/>
<stop offset="1" stop-color="#00FFFF"/>
</linearGradient>
<linearGradient id="paint1_linear_72_52" x1="14.644" y1="8.32871" x2="7.293" y2="15.6797" gradientUnits="userSpaceOnUse">
<stop stop-color="#00FF47"/>
<stop offset="1" stop-color="#00FFFF"/>
</linearGradient>
<linearGradient id="paint2_linear_72_52" x1="29.2719" y1="22.9565" x2="21.9209" y2="30.3075" gradientUnits="userSpaceOnUse">
<stop stop-color="#FA00FF"/>
<stop offset="1" stop-color="#1447FD"/>
</linearGradient>
</defs>
</svg>
