<svg width="33" height="33" viewBox="0 0 33 33" fill="none" xmlns="http://www.w3.org/2000/svg">
<g clip-path="url(#clip0_107_541)">
<path fill-rule="evenodd" clip-rule="evenodd" d="M32.2708 16.1352C32.2708 25.0464 25.0469 32.2703 16.1357 32.2703C7.22445 32.2703 0.000488281 25.0464 0.000488281 16.1352C0.000488281 7.22396 7.22445 0 16.1357 0C25.0469 0 32.2708 7.22396 32.2708 16.1352ZM16.7139 11.9112C15.1445 12.564 12.0079 13.915 7.30421 15.9644C6.5404 16.2681 6.14028 16.5652 6.10385 16.8558C6.0423 17.3468 6.65721 17.5402 7.49457 17.8035C7.60847 17.8393 7.72649 17.8764 7.84749 17.9158C8.67132 18.1835 9.77952 18.4968 10.3556 18.5093C10.8782 18.5206 11.4615 18.3051 12.1054 17.863C16.5003 14.8963 18.7689 13.3968 18.9113 13.3645C19.0118 13.3417 19.1511 13.313 19.2454 13.3969C19.3398 13.4807 19.3305 13.6395 19.3205 13.6821C19.2596 13.9418 16.8458 16.1859 15.5966 17.3472C15.2072 17.7093 14.931 17.9661 14.8745 18.0247C14.748 18.1561 14.6191 18.2804 14.4952 18.3998C13.7299 19.1376 13.1559 19.6909 14.527 20.5944C15.1859 21.0286 15.7132 21.3877 16.2392 21.7459C16.8136 22.1371 17.3865 22.5273 18.1278 23.0132C18.3167 23.137 18.4971 23.2656 18.6728 23.3908C19.3413 23.8674 19.9419 24.2956 20.6839 24.2273C21.115 24.1876 21.5604 23.7822 21.7866 22.5731C22.3211 19.7155 23.3718 13.5241 23.6146 10.9727C23.6359 10.7492 23.6091 10.4631 23.5876 10.3376C23.5661 10.212 23.5212 10.0331 23.358 9.9006C23.1647 9.74373 22.8662 9.71065 22.7328 9.71301C22.1259 9.72369 21.1948 10.0475 16.7139 11.9112Z" fill="white"/>
</g>
<defs>
<clipPath id="clip0_107_541">
<rect width="32.2703" height="32.2703" fill="white"/>
</clipPath>
</defs>
</svg>
