<svg width="34" height="34" viewBox="0 0 34 34" fill="none" xmlns="http://www.w3.org/2000/svg">
<g clip-path="url(#clip0_106_536)">
<path d="M10.963 30.1403C23.1469 30.1403 29.8128 20.0436 29.8128 11.2904C29.8128 11.0066 29.8065 10.7164 29.7939 10.4326C31.0906 9.49483 32.2097 8.33326 33.0985 7.00249C31.8908 7.53981 30.6086 7.89072 29.2956 8.04326C30.6781 7.21458 31.7132 5.91276 32.2091 4.37913C30.9085 5.1499 29.4862 5.69361 28.0031 5.98696C27.0039 4.92518 25.6827 4.22216 24.2438 3.98659C22.8049 3.75101 21.3285 3.99601 20.0428 4.68369C18.7571 5.37137 17.7337 6.46344 17.131 7.79105C16.5282 9.11866 16.3795 10.6079 16.708 12.0284C14.0745 11.8963 11.4982 11.2122 9.14614 10.0205C6.79403 8.82878 4.71861 7.15608 3.05443 5.11082C2.2086 6.56912 1.94978 8.29477 2.33056 9.93704C2.71134 11.5793 3.70315 13.015 5.10442 13.9523C4.05243 13.9189 3.02349 13.6356 2.1026 13.126V13.208C2.10166 14.7383 2.63073 16.2218 3.59987 17.4062C4.56901 18.5906 5.91842 19.4029 7.4187 19.7049C6.4442 19.9715 5.42142 20.0103 4.4295 19.8184C4.85285 21.1345 5.67654 22.2857 6.78561 23.1111C7.89468 23.9366 9.23379 24.3952 10.6161 24.423C8.26938 26.2664 5.37054 27.2662 2.38645 27.2615C1.85724 27.2606 1.32856 27.2282 0.803223 27.1643C3.83475 29.1092 7.36122 30.1422 10.963 30.1403Z" fill="white"/>
</g>
<defs>
<clipPath id="clip0_106_536">
<rect width="32.2952" height="32.2952" fill="white" transform="translate(0.802734 0.87207)"/>
</clipPath>
</defs>
</svg>
