<svg width="346" height="384" viewBox="0 0 346 384" fill="none" xmlns="http://www.w3.org/2000/svg">
<rect opacity="0.5" width="345.337" height="384" rx="20" fill="#404040"/>
<mask id="mask0_213_2186" style="mask-type:alpha" maskUnits="userSpaceOnUse" x="0" y="0" width="346" height="385">
<rect width="345.337" height="384" rx="20" fill="#404040"/>
</mask>
<g mask="url(#mask0_213_2186)">
<g filter="url(#filter0_f_213_2186)">
<path d="M276.405 -8.26158C299.221 26.4396 258.345 132.634 203.831 168.476C149.317 204.319 40.2437 183.878 17.4281 149.177C-5.38752 114.475 111.759 136.03 166.273 100.188C220.787 64.3455 253.589 -42.9628 276.405 -8.26158Z" fill="#7942F7"/>
</g>
<path d="M-76.6586 99.0971C-59.0822 126.645 0.0585492 179.897 96.01 172.528C191.961 165.159 332.624 279.628 390.961 337.783" stroke="url(#paint0_linear_213_2186)"/>
<path d="M-27.2922 125.27C1.74471 140.258 79.6338 156.591 158.895 102.014C238.156 47.4374 417.287 75.7446 496.944 96.7203" stroke="url(#paint1_linear_213_2186)"/>
<circle cx="42.5" cy="138.5" r="11.5" fill="url(#paint2_linear_213_2186)"/>
<circle cx="307" cy="267" r="20" fill="url(#paint3_linear_213_2186)"/>
<circle cx="209.5" cy="78.5" r="43.5" fill="url(#paint4_linear_213_2186)"/>
</g>
<defs>
<filter id="filter0_f_213_2186" x="-83.9241" y="-113.519" width="465.224" height="399.235" filterUnits="userSpaceOnUse" color-interpolation-filters="sRGB">
<feFlood flood-opacity="0" result="BackgroundImageFix"/>
<feBlend mode="normal" in="SourceGraphic" in2="BackgroundImageFix" result="shape"/>
<feGaussianBlur stdDeviation="49.221" result="effect1_foregroundBlur_213_2186"/>
</filter>
<linearGradient id="paint0_linear_213_2186" x1="-69.813" y1="83" x2="412.148" y2="287.964" gradientUnits="userSpaceOnUse">
<stop stop-color="white"/>
<stop offset="1" stop-color="white" stop-opacity="0"/>
</linearGradient>
<linearGradient id="paint1_linear_213_2186" x1="-29.4602" y1="107.913" x2="490.234" y2="42.9999" gradientUnits="userSpaceOnUse">
<stop stop-color="white"/>
<stop offset="1" stop-color="white" stop-opacity="0"/>
</linearGradient>
<linearGradient id="paint2_linear_213_2186" x1="41.1048" y1="150" x2="46.0092" y2="127" gradientUnits="userSpaceOnUse">
<stop stop-color="#7942F7"/>
<stop offset="0.775215" stop-color="#FFE5FA"/>
<stop offset="1" stop-color="white"/>
</linearGradient>
<linearGradient id="paint3_linear_213_2186" x1="304.574" y1="287" x2="313.103" y2="247" gradientUnits="userSpaceOnUse">
<stop stop-color="#7942F7"/>
<stop offset="0.775215" stop-color="#FFE5FA"/>
<stop offset="1" stop-color="white"/>
</linearGradient>
<linearGradient id="paint4_linear_213_2186" x1="204.222" y1="122" x2="222.774" y2="35" gradientUnits="userSpaceOnUse">
<stop stop-color="#7942F7"/>
<stop offset="0.775215" stop-color="#FFE5FA"/>
<stop offset="1" stop-color="white"/>
</linearGradient>
</defs>
</svg>
