<svg width="346" height="384" viewBox="0 0 346 384" fill="none" xmlns="http://www.w3.org/2000/svg">
<rect opacity="0.5" width="345.337" height="384" rx="20" fill="#404040"/>
<mask id="mask0_213_2183" style="mask-type:alpha" maskUnits="userSpaceOnUse" x="0" y="0" width="346" height="385">
<rect width="345.337" height="384" rx="20" fill="#404040"/>
</mask>
<g mask="url(#mask0_213_2183)">
<g filter="url(#filter0_f_213_2183)">
<path d="M263.34 50.7727C301.007 45.8524 372.077 121.891 379.807 181.064C387.537 240.237 327.164 321.836 289.497 326.757C251.831 331.677 316.343 243.879 308.614 184.706C300.884 125.533 225.673 55.6931 263.34 50.7727Z" fill="#7942F7"/>
</g>
<path d="M-50.3313 228.247L174.774 41.7085C222.198 2.41016 288.72 58.2633 258.221 111.772V111.772C227.722 165.28 294.244 221.133 341.667 181.835L545.386 13.0196" stroke="url(#paint0_linear_213_2183)"/>
<circle cx="45" cy="147" r="20" fill="url(#paint1_linear_213_2183)"/>
<circle cx="256.5" cy="55.5" r="11.5" fill="url(#paint2_linear_213_2183)"/>
<circle cx="312.5" cy="191.5" r="43.5" fill="url(#paint3_linear_213_2183)"/>
<path d="M-84 327.811L99.4053 163.585C138.044 128.987 195.821 173.841 171.883 219.85V219.85C147.944 265.86 205.722 310.714 244.36 276.116L410.34 127.492" stroke="url(#paint4_linear_213_2183)"/>
</g>
<defs>
<filter id="filter0_f_213_2183" x="162.798" y="-39.4983" width="307.728" height="456.497" filterUnits="userSpaceOnUse" color-interpolation-filters="sRGB">
<feFlood flood-opacity="0" result="BackgroundImageFix"/>
<feBlend mode="normal" in="SourceGraphic" in2="BackgroundImageFix" result="shape"/>
<feGaussianBlur stdDeviation="45.0219" result="effect1_foregroundBlur_213_2183"/>
</filter>
<linearGradient id="paint0_linear_213_2183" x1="-50.3313" y1="228.247" x2="408.596" y2="-152.052" gradientUnits="userSpaceOnUse">
<stop stop-color="white"/>
<stop offset="1" stop-color="white" stop-opacity="0"/>
</linearGradient>
<linearGradient id="paint1_linear_213_2183" x1="42.5735" y1="167" x2="51.1029" y2="127" gradientUnits="userSpaceOnUse">
<stop stop-color="#7942F7"/>
<stop offset="0.775215" stop-color="#FFE5FA"/>
<stop offset="1" stop-color="white"/>
</linearGradient>
<linearGradient id="paint2_linear_213_2183" x1="255.105" y1="67" x2="260.009" y2="44" gradientUnits="userSpaceOnUse">
<stop stop-color="#7942F7"/>
<stop offset="0.775215" stop-color="#FFE5FA"/>
<stop offset="1" stop-color="white"/>
</linearGradient>
<linearGradient id="paint3_linear_213_2183" x1="307.222" y1="235" x2="325.774" y2="148" gradientUnits="userSpaceOnUse">
<stop stop-color="#7942F7"/>
<stop offset="0.775215" stop-color="#FFE5FA"/>
<stop offset="1" stop-color="white"/>
</linearGradient>
<linearGradient id="paint4_linear_213_2183" x1="-84" y1="327.811" x2="289.912" y2="-7.00009" gradientUnits="userSpaceOnUse">
<stop stop-color="white"/>
<stop offset="1" stop-color="white" stop-opacity="0"/>
</linearGradient>
</defs>
</svg>
