<svg width="346" height="384" viewBox="0 0 346 384" fill="none" xmlns="http://www.w3.org/2000/svg">
<rect opacity="0.5" width="345.337" height="384" rx="20" fill="#404040"/>
<mask id="mask0_213_2182" style="mask-type:alpha" maskUnits="userSpaceOnUse" x="0" y="0" width="346" height="385">
<rect x="0.000244141" width="345.337" height="384" rx="20" fill="#404040"/>
</mask>
<g mask="url(#mask0_213_2182)">
<g filter="url(#filter0_f_213_2182)">
<path d="M282.106 381.064C246.593 425.614 90.6953 417.617 20.7083 361.827C-49.2787 306.038 -69.1533 155.102 -33.6401 110.552C1.87314 66.0012 23.7389 227.938 93.7259 283.728C163.713 339.518 317.62 336.513 282.106 381.064Z" fill="#7942F7"/>
</g>
<circle cx="59.5" cy="224.5" r="43.5" fill="url(#paint0_linear_213_2182)"/>
<path d="M-88.2296 358.663C-126.953 267.106 -84.1224 161.493 7.43455 122.77C98.9915 84.0464 204.604 126.877 243.328 218.434C282.051 309.991 239.22 415.604 147.663 454.327C56.1064 493.05 -49.5065 450.22 -88.2296 358.663Z" stroke="url(#paint1_linear_213_2182)"/>
<path d="M-35.8789 92.3683C73.5619 29.1826 213.503 66.6798 276.689 176.121C339.875 285.561 302.377 425.503 192.937 488.689C83.4958 551.874 -56.4456 514.377 -119.631 404.936C-182.817 295.495 -145.32 155.554 -35.8789 92.3683Z" stroke="url(#paint2_linear_213_2182)"/>
<circle cx="81.0002" cy="67" r="20" fill="url(#paint3_linear_213_2182)"/>
<circle cx="297.5" cy="219.5" r="11.5" fill="url(#paint4_linear_213_2182)"/>
</g>
<defs>
<filter id="filter0_f_213_2182" x="-185.944" y="-32.1561" width="608.345" height="576.969" filterUnits="userSpaceOnUse" color-interpolation-filters="sRGB">
<feFlood flood-opacity="0" result="BackgroundImageFix"/>
<feBlend mode="normal" in="SourceGraphic" in2="BackgroundImageFix" result="shape"/>
<feGaussianBlur stdDeviation="67.5244" result="effect1_foregroundBlur_213_2182"/>
</filter>
<linearGradient id="paint0_linear_213_2182" x1="54.2224" y1="268" x2="72.7739" y2="181" gradientUnits="userSpaceOnUse">
<stop stop-color="#7942F7"/>
<stop offset="0.775215" stop-color="#FFE5FA"/>
<stop offset="1" stop-color="white"/>
</linearGradient>
<linearGradient id="paint1_linear_213_2182" x1="314.097" y1="384.478" x2="-18.3809" y2="525.096" gradientUnits="userSpaceOnUse">
<stop stop-color="white"/>
<stop offset="1" stop-color="white" stop-opacity="0"/>
</linearGradient>
<linearGradient id="paint2_linear_213_2182" x1="-5.40649" y1="603.779" x2="-234.722" y2="206.593" gradientUnits="userSpaceOnUse">
<stop stop-color="white"/>
<stop offset="1" stop-color="white" stop-opacity="0"/>
</linearGradient>
<linearGradient id="paint3_linear_213_2182" x1="78.5738" y1="87" x2="87.1032" y2="47" gradientUnits="userSpaceOnUse">
<stop stop-color="#7942F7"/>
<stop offset="0.775215" stop-color="#FFE5FA"/>
<stop offset="1" stop-color="white"/>
</linearGradient>
<linearGradient id="paint4_linear_213_2182" x1="296.105" y1="231" x2="301.01" y2="208" gradientUnits="userSpaceOnUse">
<stop stop-color="#7942F7"/>
<stop offset="0.775215" stop-color="#FFE5FA"/>
<stop offset="1" stop-color="white"/>
</linearGradient>
</defs>
</svg>
